<svg id="Layer_1" data-name="Layer 1" xmlns="http://www.w3.org/2000/svg" viewBox="0 0 144 144"><defs><style>.cls-1,.cls-2{fill:none;}.cls-1,.cls-2,.cls-4{stroke:#231f20;stroke-miterlimit:10;}.cls-1{stroke-width:5px;}.cls-2,.cls-4{stroke-width:4px;}.cls-3{fill:#231f20;}.cls-4{fill:#fff;}</style></defs><title>sybols_3</title><circle class="cls-1" cx="69.93" cy="72.38" r="25.49"/><line class="cls-2" x1="69.98" y1="46.88" x2="69.98" y2="10.6"/><polygon class="cls-3" points="69.78 3.92 72.08 7.74 74.56 11.73 69.78 11.57 65.25 11.96 67.58 7.94 69.78 3.92"/><line class="cls-4" x1="69.98" y1="7.74" x2="56.66" y2="31"/><line class="cls-4" x1="69.58" y1="7.52" x2="83.21" y2="29.26"/><polygon class="cls-3" points="138.4 71.84 134.57 74.15 130.58 76.63 130.74 71.84 130.35 67.31 134.37 69.65 138.4 71.84"/><line class="cls-2" x1="95.43" y1="72.05" x2="131.71" y2="72.05"/><line class="cls-4" x1="134.57" y1="72.05" x2="111.31" y2="58.72"/><line class="cls-4" x1="134.79" y1="71.65" x2="113.05" y2="85.28"/><line class="cls-2" x1="44.44" y1="72.33" x2="8.16" y2="72.33"/><polygon class="cls-3" points="1.48 72.54 5.3 70.23 9.29 67.75 9.13 72.54 9.52 77.06 5.5 74.73 1.48 72.54"/><line class="cls-4" x1="5.3" y1="72.33" x2="28.56" y2="85.66"/><line class="cls-4" x1="5.08" y1="72.73" x2="26.82" y2="59.1"/><line class="cls-2" x1="69.93" y1="98.3" x2="69.93" y2="134.58"/><polygon class="cls-3" points="70.14 141.27 67.83 137.44 65.36 133.46 70.14 133.62 74.67 133.23 72.33 137.25 70.14 141.27"/><line class="cls-4" x1="69.93" y1="137.44" x2="83.26" y2="114.18"/><line class="cls-4" x1="70.34" y1="137.66" x2="56.7" y2="115.93"/><line class="cls-2" x1="52.19" y1="53.82" x2="36.29" y2="35.17"/><polygon class="cls-3" points="32.37 30.78 35.37 31.85 38.38 32.79 35.52 34.61 33.54 36.62 32.97 33.59 32.37 30.78"/><line class="cls-4" x1="35.03" y1="33.7" x2="38.38" y2="51.5"/><line class="cls-4" x1="34.73" y1="33.76" x2="51.26" y2="38.96"/><line class="cls-2" x1="88.27" y1="54.41" x2="106.92" y2="38.5"/><polygon class="cls-3" points="111.31 34.58 110.23 37.59 109.3 40.59 107.48 37.74 105.47 35.75 108.49 35.19 111.31 34.58"/><line class="cls-4" x1="108.39" y1="37.25" x2="90.59" y2="40.59"/><line class="cls-4" x1="108.33" y1="36.95" x2="103.13" y2="53.48"/><line class="cls-2" x1="87.68" y1="91.06" x2="103.58" y2="109.71"/><polygon class="cls-3" points="107.5 114.1 104.5 113.02 101.49 112.09 104.35 110.27 106.33 108.26 106.9 111.28 107.5 114.1"/><line class="cls-4" x1="104.84" y1="111.18" x2="101.49" y2="93.38"/><line class="cls-4" x1="105.14" y1="111.12" x2="88.61" y2="105.92"/><line class="cls-2" x1="49.9" y1="88.39" x2="31.25" y2="104.29"/><polygon class="cls-3" points="26.86 108.21 27.93 105.21 28.87 102.2 30.68 105.06 32.7 107.04 29.67 107.61 26.86 108.21"/><line class="cls-4" x1="29.78" y1="105.55" x2="47.57" y2="102.2"/><line class="cls-4" x1="29.84" y1="105.85" x2="35.04" y2="89.32"/></svg>