<svg id="Layer_1" data-name="Layer 1" xmlns="http://www.w3.org/2000/svg" viewBox="0 0 4730.04 768"><defs><style>.cls-1,.cls-10,.cls-12,.cls-4,.cls-6,.cls-7{fill:none;}.cls-1,.cls-12,.cls-4,.cls-5,.cls-6{stroke:#231f20;}.cls-1,.cls-10,.cls-12,.cls-4,.cls-5,.cls-6,.cls-7,.cls-8{stroke-miterlimit:10;}.cls-1,.cls-10,.cls-5,.cls-8{stroke-width:4px;}.cls-11,.cls-2,.cls-3{fill:#231f20;}.cls-3{font-size:12px;}.cls-11,.cls-3{font-family:Myriad Pro;}.cls-4,.cls-7{stroke-width:5px;}.cls-5,.cls-8,.cls-9{fill:#fff;}.cls-10,.cls-7,.cls-8{stroke:#fff;}.cls-11{font-size:104px;}.cls-12{stroke-width:3px;}</style></defs><title>hashtag</title><rect class="cls-1" x="27.09" y="608.32" width="89.49" height="44.68"/><line class="cls-1" x1="18.05" y1="655.33" x2="18.05" y2="597.17"/><line class="cls-1" x1="16.13" y1="599.02" x2="127.71" y2="599.02"/><line class="cls-1" x1="125.7" y1="597.17" x2="125.7" y2="655.33"/><line class="cls-1" x1="71.83" y1="544.75" x2="71.83" y2="599.02"/><circle class="cls-2" cx="72.17" cy="630.66" r="5.47"/><text class="cls-3" transform="translate(0 682.85)">dange<tspan x="31.93" y="0">r</tspan><tspan x="35.74" y="0">ous neighou</tspan><tspan x="98.28" y="0">r</tspan><tspan x="102.25" y="0">hood</tspan></text><text class="cls-3" transform="translate(163.33 682.85)">danger</text><line class="cls-4" x1="342.2" y1="653" x2="342.2" y2="598.52"/><line class="cls-4" x1="339.75" y1="599.02" x2="449.8" y2="599.02"/><line class="cls-4" x1="449.85" y1="596.5" x2="449.85" y2="653"/><line class="cls-4" x1="395.98" y1="544.67" x2="395.98" y2="599.02"/><text class="cls-3" transform="translate(323.83 688.52)">st<tspan x="8.72" y="0">a</tspan><tspan x="14.41" y="0">y he</tspan><tspan x="35.28" y="0">r</tspan><tspan x="39.08" y="0">e</tspan></text><circle class="cls-1" cx="558.88" cy="597.97" r="45.02"/><line class="cls-1" x1="606.37" y1="544.86" x2="511.4" y2="653.19"/><line class="cls-1" x1="511.4" y1="544.86" x2="606.37" y2="653.19"/><rect class="cls-1" x="188.21" y="608.32" width="89.49" height="44.68"/><circle class="cls-2" cx="233.29" cy="630.66" r="5.47"/><text class="cls-3" transform="translate(490.17 688.52)">unf<tspan x="16.78" y="0">r</tspan><tspan x="20.75" y="0">iendly pla</tspan><tspan x="69.47" y="0">c</tspan><tspan x="74.77" y="0">e</tspan></text><circle class="cls-1" cx="728.24" cy="597.97" r="45.02"/><text class="cls-3" transform="translate(658.17 688.52)">f<tspan x="3.5" y="0">r</tspan><tspan x="7.48" y="0">iendly pla</tspan><tspan x="56.19" y="0">c</tspan><tspan x="61.5" y="0">e</tspan></text><text class="cls-3" transform="translate(822.17 688.52)">no use going this <tspan x="88.46" y="0">w</tspan><tspan x="97.25" y="0">a</tspan><tspan x="102.94" y="0">y</tspan></text><ellipse class="cls-1" cx="906.48" cy="594.52" rx="39.19" ry="41.64"/><line class="cls-1" x1="957" y1="594.46" x2="831.69" y2="594.46"/><polygon class="cls-2" points="823.71 594.52 827.88 592.11 832.04 589.71 832.04 594.52 832.04 599.35 826.56 596.21 823.71 594.52"/><line class="cls-5" x1="827.54" y1="594.46" x2="855.02" y2="610.21"/><line class="cls-5" x1="827.28" y1="594.94" x2="852.96" y2="578.82"/><text class="cls-3" transform="translate(983.83 686.52)">keepgoing</text><ellipse class="cls-1" cx="1193.04" cy="594.92" rx="28.6" ry="30.38"/><ellipse class="cls-1" cx="1250.24" cy="594.92" rx="28.6" ry="30.38"/><text class="cls-3" transform="translate(1147.83 689.02)">do<tspan x="13.36" y="0">n</tspan><tspan x="19.62" y="0">’</tspan><tspan x="21.97" y="0">t </tspan><tspan x="28.49" y="0">g</tspan><tspan x="35.12" y="0">i</tspan><tspan x="37.93" y="0">v</tspan><tspan x="43.58" y="0">e up</tspan></text><text class="cls-3" transform="translate(1311.83 686.27)">e<tspan x="5.98" y="0">xplo</tspan><tspan x="27.78" y="0">r</tspan><tspan x="31.58" y="0">e</tspan></text><circle class="cls-1" cx="1550.05" cy="597.38" r="45.02"/><line class="cls-1" x1="1573.62" y1="569" x2="1526.49" y2="622.76"/><line class="cls-1" x1="1526.49" y1="569" x2="1573.62" y2="622.76"/><text class="cls-3" transform="translate(1477.89 689.02)">good pla<tspan x="44.64" y="0">c</tspan><tspan x="49.94" y="0">e </tspan><tspan x="58.5" y="0">t</tspan><tspan x="62.4" y="0">o hangout</tspan></text><line class="cls-1" x1="1704" y1="557.65" x2="1661" y2="645.29"/><line class="cls-1" x1="1733.68" y1="557.65" x2="1690.68" y2="645.29"/><line class="cls-1" x1="1763.36" y1="557.65" x2="1720.36" y2="645.29"/><text class="cls-3" transform="translate(1639.83 689.02)">this is not a sa<tspan x="69.47" y="0">f</tspan><tspan x="72.82" y="0">e pla</tspan><tspan x="96.82" y="0">c</tspan><tspan x="102.12" y="0">e</tspan></text><circle class="cls-4" cx="1871.86" cy="598.92" r="45.02"/><text class="cls-3" transform="translate(1805.5 687.52)">nothing he<tspan x="55.27" y="0">r</tspan><tspan x="59.08" y="0">e</tspan></text><ellipse class="cls-1" cx="2023.32" cy="598.06" rx="39.19" ry="41.64"/><line class="cls-1" x1="1972.79" y1="580.12" x2="2098.87" y2="580.12"/><polygon class="cls-2" points="2106.21 580.12 2102.04 582.52 2097.88 584.93 2097.88 580.12 2097.88 575.31 2102.04 577.71 2106.21 580.12"/><line class="cls-5" x1="2102.25" y1="580.12" x2="2074.77" y2="564.37"/><line class="cls-5" x1="2102.51" y1="579.64" x2="2076.83" y2="595.75"/><line class="cls-1" x1="1972.79" y1="611.5" x2="2100.13" y2="611.5"/><polygon class="cls-2" points="2106.21 611.5 2102.04 613.91 2097.88 616.32 2097.88 611.5 2097.88 606.69 2102.04 609.1 2106.21 611.5"/><line class="cls-5" x1="2102.25" y1="611.5" x2="2074.77" y2="595.75"/><line class="cls-5" x1="2102.51" y1="611.03" x2="2076.83" y2="627.14"/><text class="cls-3" transform="translate(1970.5 689.02)">hit the <tspan x="35.17" y="0">r</tspan><tspan x="38.97" y="0">ode quick</tspan></text><line class="cls-1" x1="2150" y1="574.7" x2="2258.5" y2="574.7"/><line class="cls-1" x1="2176.25" y1="574.7" x2="2152.25" y2="618.5"/><line class="cls-1" x1="2232.13" y1="574.7" x2="2256.13" y2="618.5"/><text class="cls-3" transform="translate(2132 693.02)">f<tspan x="3.5" y="0">r</tspan><tspan x="7.31" y="0">ee</tspan><tspan x="19.33" y="0">f</tspan><tspan x="22.68" y="0">ood</tspan></text><line class="cls-1" x1="2306" y1="559" x2="2429" y2="559"/><line class="cls-1" x1="2427.5" y1="559" x2="2306" y2="621.5"/><line class="cls-1" x1="2307.45" y1="559.36" x2="2429" y2="621.5"/><ellipse class="cls-6" cx="2337.13" cy="590.25" rx="10.94" ry="4.06"/><circle class="cls-2" cx="2337.13" cy="590.25" r="4.06"/><ellipse class="cls-6" cx="2395.38" cy="590.25" rx="10.94" ry="4.06"/><circle class="cls-2" cx="2395.38" cy="590.25" r="4.06"/><polygon class="cls-1" points="2532 641 2506.16 596.25 2480.33 551.5 2532 551.5 2583.67 551.5 2557.84 596.25 2532 641"/><text class="cls-3" transform="translate(2301 693.02)">sa<tspan x="10.54" y="0">f</tspan><tspan x="13.88" y="0">e camp</tspan></text><text class="cls-3" transform="translate(2464 693.02)">t<tspan x="3.97" y="0">r</tspan><tspan x="7.84" y="0">a</tspan><tspan x="13.52" y="0">v</tspan><tspan x="19.18" y="0">elers </tspan><tspan x="45.25" y="0">w</tspan><tspan x="53.96" y="0">el</tspan><tspan x="62.81" y="0">c</tspan><tspan x="68.11" y="0">ome</tspan></text><ellipse class="cls-1" cx="2674.46" cy="596.25" rx="35.66" ry="37.57"/><ellipse class="cls-1" cx="2723.34" cy="596.25" rx="35.66" ry="37.57"/><text class="cls-3" transform="translate(2625 693.02)">c<tspan x="5.3" y="0">ops a</tspan><tspan x="31.8" y="0">r</tspan><tspan x="35.6" y="0">ound will a</tspan><tspan x="90.41" y="0">r</tspan><tspan x="94.38" y="0">r</tspan><tspan x="98.18" y="0">est</tspan></text><circle class="cls-2" cx="2857.67" cy="599" r="13.5"/><circle class="cls-1" cx="2857.67" cy="599" r="24.88"/><circle class="cls-1" cx="2857.67" cy="599" r="36.01"/><circle class="cls-1" cx="2857.67" cy="599" r="46.64"/><text class="cls-3" transform="translate(2788 693.02)">wifi</text><rect class="cls-1" x="2976.74" y="552.36" width="95.33" height="67.98"/><line class="cls-1" x1="2981.57" y1="631" x2="3067.24" y2="631"/><line class="cls-1" x1="2989.74" y1="644.17" x2="3059.07" y2="644.17"/><line class="cls-1" x1="2997.07" y1="657.33" x2="3051.74" y2="657.33"/><text class="cls-3" transform="translate(2954 687.69)">c<tspan x="5.3" y="0">ompu</tspan><tspan x="35.34" y="0">t</tspan><tspan x="39.24" y="0">er</tspan></text><circle class="cls-1" cx="3186.17" cy="599.22" r="52.45"/><circle class="cls-1" cx="3186.17" cy="599.22" r="13.31"/><text class="cls-3" transform="translate(3119.17 685.35)">v<tspan x="5.65" y="0">e</tspan><tspan x="11.66" y="0">r</tspan><tspan x="15.89" y="0">y good</tspan></text><circle class="cls-1" cx="3352" cy="599.22" r="58"/><line class="cls-1" x1="3411.67" y1="539.67" x2="3293" y2="658.34"/><text class="cls-3" transform="translate(3280 689.35)">good <tspan x="29.2" y="0">r</tspan><tspan x="33" y="0">oad </tspan><tspan x="54.68" y="0">t</tspan><tspan x="58.58" y="0">o </tspan><tspan x="67.71" y="0">f</tspan><tspan x="71.06" y="0">oll</tspan><tspan x="83.31" y="0">o</tspan><tspan x="89.82" y="0">w</tspan></text><rect class="cls-1" x="3456.33" y="593.93" width="93.48" height="59.9"/><line class="cls-1" x1="3581" y1="562.75" x2="3549.81" y2="593.93"/><rect class="cls-1" x="3650.67" y="35.75" width="93.48" height="59.9" transform="translate(7394.81 658.4) rotate(180)"/><line class="cls-1" x1="3619.48" y1="653.83" x2="3650.67" y2="622.65"/><text class="cls-3" transform="translate(3447 689.35)">G<tspan x="7.81" y="0">ood bar cheap d</tspan><tspan x="89.35" y="0">r</tspan><tspan x="93.32" y="0">inks</tspan></text><text class="cls-3" transform="translate(3610.15 689.35)">bad bar <tspan x="41" y="0">a</tspan><tspan x="46.69" y="0">v</tspan><tspan x="52.34" y="0">oid</tspan></text><polygon points="3904.22 658.07 3804.81 535.41 3801.7 537.93 3850.34 597.95 3797.37 658.01 3800.37 660.66 3852.9 601.1 3901.11 660.59 3904.22 658.07"/><text class="cls-3" transform="translate(3772 691.19)">keep <tspan x="27.02" y="0">a</tspan><tspan x="32.71" y="0">w</tspan><tspan x="41.5" y="0">a</tspan><tspan x="47.18" y="0">y</tspan></text><text class="cls-3" transform="translate(3936 691.19)">good li<tspan x="34.83" y="0">v</tspan><tspan x="40.49" y="0">e music </tspan></text><text class="cls-3" transform="translate(4105 685.19)">ca<tspan x="11.16" y="0">n</tspan><tspan x="17.42" y="0">’</tspan><tspan x="19.78" y="0">t e</tspan><tspan x="32.3" y="0">v</tspan><tspan x="37.96" y="0">en</tspan></text><line class="cls-1" x1="781.16" y1="550.63" x2="710.1" y2="630.52"/><polygon class="cls-2" points="708.89 630.42 704.79 608.71 708.82 607.94 712.43 629.52 711.66 631.84 708.89 630.42"/><ellipse class="cls-1" cx="1041.57" cy="593.57" rx="39.19" ry="41.64"/><line class="cls-1" x1="991.04" y1="593.63" x2="1116.35" y2="593.63"/><polygon class="cls-2" points="1124.33 593.58 1120.17 595.98 1116 598.39 1116 593.58 1116 588.75 1121.48 591.88 1124.33 593.58"/><line class="cls-5" x1="1120.5" y1="593.63" x2="1093.02" y2="577.88"/><line class="cls-5" x1="1120.76" y1="593.16" x2="1095.08" y2="609.27"/><polygon class="cls-2" points="1450.39 598.84 1446.57 601.15 1442.58 603.63 1442.74 598.84 1442.35 594.32 1446.37 596.65 1450.39 598.84"/><circle class="cls-4" cx="1381.93" cy="599.38" r="25.49"/><line class="cls-1" x1="1381.98" y1="573.88" x2="1381.98" y2="537.6"/><polygon class="cls-2" points="1381.78 530.92 1384.08 534.74 1386.56 538.73 1381.78 538.57 1377.25 538.96 1379.58 534.94 1381.78 530.92"/><line class="cls-5" x1="1381.98" y1="534.74" x2="1368.66" y2="558"/><line class="cls-5" x1="1381.58" y1="534.52" x2="1395.21" y2="556.26"/><line class="cls-1" x1="1407.43" y1="599.05" x2="1443.71" y2="599.05"/><line class="cls-5" x1="1446.57" y1="599.05" x2="1423.31" y2="585.72"/><line class="cls-5" x1="1446.79" y1="598.65" x2="1425.05" y2="612.28"/><line class="cls-1" x1="1356.44" y1="599.33" x2="1320.16" y2="599.33"/><polygon class="cls-2" points="1313.47 599.54 1317.3 597.23 1321.29 594.75 1321.13 599.54 1321.52 604.06 1317.5 601.73 1313.47 599.54"/><line class="cls-5" x1="1317.3" y1="599.33" x2="1340.56" y2="612.66"/><line class="cls-5" x1="1317.08" y1="599.73" x2="1338.82" y2="586.1"/><line class="cls-1" x1="1381.93" y1="625.3" x2="1381.93" y2="661.58"/><polygon class="cls-2" points="1382.14 668.27 1379.84 664.44 1377.36 660.46 1382.14 660.62 1386.67 660.23 1384.34 664.25 1382.14 668.27"/><line class="cls-5" x1="1381.93" y1="664.44" x2="1395.26" y2="641.18"/><line class="cls-5" x1="1382.34" y1="664.66" x2="1368.7" y2="642.93"/><line class="cls-1" x1="1364.19" y1="580.82" x2="1348.29" y2="562.17"/><polygon class="cls-2" points="1344.37 557.78 1347.37 558.85 1350.38 559.79 1347.52 561.61 1345.54 563.62 1344.97 560.59 1344.37 557.78"/><line class="cls-5" x1="1347.03" y1="560.7" x2="1350.38" y2="578.5"/><line class="cls-5" x1="1346.73" y1="560.76" x2="1363.26" y2="565.96"/><line class="cls-1" x1="1400.27" y1="581.41" x2="1418.92" y2="565.5"/><polygon class="cls-2" points="1423.31 561.58 1422.23 564.59 1421.3 567.59 1419.48 564.74 1417.47 562.75 1420.49 562.19 1423.31 561.58"/><line class="cls-5" x1="1420.39" y1="564.25" x2="1402.59" y2="567.59"/><line class="cls-5" x1="1420.33" y1="563.95" x2="1415.13" y2="580.48"/><line class="cls-1" x1="1399.68" y1="618.06" x2="1415.58" y2="636.71"/><polygon class="cls-2" points="1419.51 641.1 1416.5 640.02 1413.49 639.09 1416.35 637.27 1418.33 635.26 1418.9 638.28 1419.51 641.1"/><line class="cls-5" x1="1416.84" y1="638.18" x2="1413.49" y2="620.38"/><line class="cls-5" x1="1417.14" y1="638.12" x2="1400.61" y2="632.92"/><line class="cls-1" x1="1361.9" y1="615.39" x2="1343.25" y2="631.29"/><polygon class="cls-2" points="1338.86 635.21 1339.93 632.21 1340.87 629.2 1342.68 632.06 1344.69 634.04 1341.67 634.61 1338.86 635.21"/><line class="cls-5" x1="1341.78" y1="632.55" x2="1359.57" y2="629.2"/><line class="cls-5" x1="1341.84" y1="632.85" x2="1347.04" y2="616.32"/><circle class="cls-1" cx="2419.81" cy="243.06" r="53.06"/><line class="cls-1" x1="2519" x2="2519" y2="230"/><circle class="cls-1" cx="3967.17" cy="640.21" r="16.91"/><line class="cls-1" x1="3998" y1="575.36" x2="3998" y2="636.11"/><circle class="cls-1" cx="4029.83" cy="598.82" r="16.91"/><line class="cls-1" x1="4060.66" y1="533.98" x2="4060.66" y2="594.73"/><line class="cls-1" x1="4108.75" y1="601.72" x2="4162.25" y2="601.72"/><line class="cls-1" x1="4108.75" y1="617.95" x2="4162.25" y2="617.95"/><line class="cls-1" x1="4181.75" y1="593.6" x2="4235.25" y2="593.6"/><line class="cls-1" x1="4181.75" y1="609.83" x2="4235.25" y2="609.83"/><line class="cls-1" x1="4181.75" y1="576.27" x2="4162.25" y2="633.63"/><rect class="cls-6" x="1742.43" y="46.22" width="198" height="198"/><circle class="cls-7" cx="1636.08" cy="134.48" r="29.9"/><line class="cls-8" x1="1636.13" y1="104.58" x2="1636.13" y2="62.02"/><polygon class="cls-9" points="1635.89 54.18 1638.19 58.67 1641.66 64.13 1635.89 63.16 1630.28 64.84 1633.59 59 1635.89 54.18"/><line class="cls-8" x1="1636.13" y1="58.67" x2="1620.5" y2="85.95"/><line class="cls-8" x1="1635.66" y1="58.41" x2="1651.65" y2="83.9"/><polygon class="cls-9" points="1716.24 133.96 1713.13 135.38 1707.25 139.04 1707.96 133.96 1707.17 129.06 1712.9 132.38 1716.24 133.96"/><line class="cls-8" x1="1665.98" y1="134.1" x2="1708.54" y2="134.1"/><line class="cls-8" x1="1711.89" y1="134.1" x2="1684.61" y2="118.46"/><line class="cls-8" x1="1712.15" y1="133.63" x2="1686.66" y2="149.62"/><line class="cls-8" x1="1606.17" y1="134.43" x2="1563.61" y2="134.43"/><polygon class="cls-9" points="1555.77 134.67 1560.8 132.04 1565.83 128.88 1564.75 134.67 1567.21 140.75 1561.19 137.28 1555.77 134.67"/><line class="cls-8" x1="1560.26" y1="134.43" x2="1587.54" y2="150.06"/><line class="cls-8" x1="1560" y1="134.9" x2="1585.5" y2="118.91"/><line class="cls-8" x1="1636.08" y1="164.9" x2="1636.08" y2="207.45"/><polygon class="cls-9" points="1636.32 215.3 1634.88 212.19 1631.03 205.97 1636.32 206.32 1641.5 205.41 1637.81 211.81 1636.32 215.3"/><line class="cls-8" x1="1636.08" y1="210.81" x2="1651.71" y2="183.52"/><line class="cls-8" x1="1636.55" y1="211.07" x2="1620.56" y2="185.57"/><line class="cls-8" x1="1615.26" y1="112.72" x2="1596.61" y2="90.84"/><polygon class="cls-9" points="1592.01 85.69 1595.44 87.31 1600.34 88.84 1595.71 90.18 1593.94 93.44 1593.16 89.56 1592.01 85.69"/><line class="cls-8" x1="1595.14" y1="89.11" x2="1599.06" y2="109.99"/><line class="cls-8" x1="1594.78" y1="89.19" x2="1614.18" y2="95.28"/><line class="cls-8" x1="1657.58" y1="113.4" x2="1679.46" y2="94.75"/><polygon class="cls-9" points="1684.61 90.15 1682.74 94.23 1681.57 98.15 1680.12 93.85 1676.98 92.04 1680.77 91.33 1684.61 90.15"/><line class="cls-8" x1="1681.18" y1="93.28" x2="1660.31" y2="97.2"/><line class="cls-8" x1="1681.11" y1="92.92" x2="1675.01" y2="112.32"/><line class="cls-8" x1="1656.89" y1="156.4" x2="1675.55" y2="178.27"/><polygon class="cls-9" points="1680.15 183.42 1676.72 181.81 1672.34 180.44 1676.44 178.93 1678.16 175.47 1679.03 179.45 1680.15 183.42"/><line class="cls-8" x1="1677.02" y1="180" x2="1673.1" y2="159.12"/><line class="cls-8" x1="1677.37" y1="179.92" x2="1657.98" y2="173.83"/><line class="cls-8" x1="1612.57" y1="153.27" x2="1590.69" y2="171.92"/><polygon class="cls-9" points="1585.54 176.52 1587.08 173.04 1588.54 168.63 1590.04 172.82 1592.92 174.67 1589.42 175.38 1585.54 176.52"/><line class="cls-8" x1="1588.97" y1="173.39" x2="1609.85" y2="169.47"/><line class="cls-8" x1="1589.04" y1="173.75" x2="1595.14" y2="154.35"/><path class="cls-9" d="M1584.63-292h-1.43l-0.45,3.11h-1.25l0.43-3.11h-1.19l-0.45,3.11h-1.23l0.43-3.11h-1.4v-1.3h1.6l0.18-1.23h-1.39v-1.3H1580l0.42-2.93h1.22l-0.41,2.93h1.2l0.41-2.93h1.26l-0.42,2.93H1585v1.3h-1.44l-0.17,1.23h1.25v1.3Zm-3.53-2.54-0.17,1.23h1.19l0.18-1.23h-1.21Z" transform="translate(0 527)"/><path class="cls-9" d="M1591.68-288.92c-3.82.21-4.29-.06-4.29-2.59v-3.07h-1v-1.68h1.08v-2.28h2.87v2.28h1.4v1.68h-1.4v2.66c0,0.67.1,0.91,0.91,0.91h0.46v2.09Z" transform="translate(0 527)"/><path class="cls-9" d="M1593.11-296.26h2.65v1.48h0a2.21,2.21,0,0,1,2.25-1.7,3.55,3.55,0,0,1,.38,0v2.91a4.4,4.4,0,0,0-.6-0.08c-1.19,0-1.79.56-1.79,2.14v2.54h-2.91v-7.34Z" transform="translate(0 527)"/><path class="cls-9" d="M1604.46-288.92l-0.14-.78a3.67,3.67,0,0,1-2.76,1c-1.39,0-2.62-.69-2.62-2.21,0-3.33,5.22-1.82,5.22-3.19a0.8,0.8,0,0,0-1-.6,0.86,0.86,0,0,0-1,.71h-2.8c0-1.55,1.11-2.47,4-2.47,3.47,0,3.68,1.29,3.68,3V-290a1,1,0,0,0,.39.94v0.14h-3Zm-0.29-3.25c-1,.46-2.21.24-2.21,1.19a0.76,0.76,0,0,0,.92.62C1603.9-290.36,1604.24-291.16,1604.17-292.17Z" transform="translate(0 527)"/><path class="cls-9" d="M1608.07-296.26H1611l1.29,4.64,1.27-4.64h2.8l-2.48,7.34h-3.25Z" transform="translate(0 527)"/><path class="cls-9" d="M1619.83-291.93a1.41,1.41,0,0,0,1.44,1.44,1.16,1.16,0,0,0,1.09-.64h2.79c-0.5,1.82-2.35,2.42-4.06,2.42-2.35,0-4.17-1.34-4.17-3.81a3.89,3.89,0,0,1,4.16-4,4.13,4.13,0,0,1,4.31,4.54h-5.56Zm2.65-1.48a1.32,1.32,0,0,0-1.29-1.27,1.21,1.21,0,0,0-1.36,1.27h2.65Z" transform="translate(0 527)"/><path class="cls-9" d="M1626.69-288.92V-299h2.91v10.09h-2.91Z" transform="translate(0 527)"/><path class="cls-9" d="M1633.83-291.93a1.41,1.41,0,0,0,1.44,1.44,1.16,1.16,0,0,0,1.09-.64h2.79c-0.5,1.82-2.35,2.42-4.06,2.42-2.35,0-4.17-1.34-4.17-3.81a3.89,3.89,0,0,1,4.16-4,4.13,4.13,0,0,1,4.31,4.54h-5.56Zm2.65-1.48a1.32,1.32,0,0,0-1.29-1.27,1.21,1.21,0,0,0-1.36,1.27h2.65Z" transform="translate(0 527)"/><path class="cls-9" d="M1640.55-296.26h2.65v1.48h0a2.21,2.21,0,0,1,2.25-1.7,3.55,3.55,0,0,1,.38,0v2.91a4.4,4.4,0,0,0-.6-0.08c-1.19,0-1.79.56-1.79,2.14v2.54h-2.91v-7.34Z" transform="translate(0 527)"/><path class="cls-9" d="M1649.28-291.2a0.81,0.81,0,0,0,.31.67,1.17,1.17,0,0,0,.71.22,0.76,0.76,0,0,0,.92-0.66c0-1.18-4.5-.24-4.5-3.08,0-1.88,1.95-2.42,3.47-2.42s3.47,0.36,3.64,2.31h-2.65a0.77,0.77,0,0,0-.28-0.53,0.92,0.92,0,0,0-.59-0.18c-0.5,0-.83.15-0.83,0.52,0,1,4.64.34,4.64,3.08,0,1.53-1.26,2.56-4,2.56-1.68,0-3.53-.52-3.68-2.49h2.77Z" transform="translate(0 527)"/><path class="cls-9" d="M1660.3-293.46a1.1,1.1,0,0,0-.31-0.76,1,1,0,0,0-.76-0.29c-1.09,0-1.28,1.13-1.28,2,0,1.11.42,1.83,1.28,1.83a1.1,1.1,0,0,0,1.13-1.09h2.94c-0.25,2.23-2,3.05-4.08,3.05-2.37,0-4.19-1.33-4.19-3.81s1.76-4,4.19-4c2,0,3.81.84,4,3h-3Z" transform="translate(0 527)"/><path class="cls-9" d="M1668.58-296.47c2.59,0,4.19,1.53,4.19,3.81,0,2.69-1.82,4-4.17,4s-4.17-1.29-4.17-3.8S1666.1-296.47,1668.58-296.47Zm-1.25,3.81c0,1.39.52,2,1.26,2s1.26-.6,1.26-2c0-1.08-.48-1.89-1.23-1.85C1667.63-294.51,1667.34-293.48,1667.34-292.66Z" transform="translate(0 527)"/><path class="cls-9" d="M1679.32-288.92v-1a2.54,2.54,0,0,1-2.25,1.19c-2.21,0-3.33-1.67-3.33-3.74,0-2.44,1.36-4,3.11-4a2.54,2.54,0,0,1,2.18,1V-299h2.91v10.09h-2.62Zm-0.2-3.6c0-.81-0.28-1.69-1.25-1.69s-1.23.92-1.23,1.74,0.2,1.67,1.15,1.67S1679.13-291.66,1679.13-292.52Z" transform="translate(0 527)"/><path class="cls-9" d="M1686-291.93a1.41,1.41,0,0,0,1.44,1.44,1.16,1.16,0,0,0,1.09-.64h2.79c-0.5,1.82-2.35,2.42-4.06,2.42-2.35,0-4.17-1.34-4.17-3.81a3.89,3.89,0,0,1,4.16-4,4.13,4.13,0,0,1,4.31,4.54H1686Zm2.65-1.48a1.32,1.32,0,0,0-1.29-1.27,1.21,1.21,0,0,0-1.36,1.27h2.65Z" transform="translate(0 527)"/><path class="cls-10" d="M1107.25-358.37c0-16.78,12.8-30.38,28.6-30.38s28.6,13.6,28.6,30.38-12.8,30.38-28.6,30.38-28.6-13.6-28.6-30.38" transform="translate(0 527)"/><path class="cls-10" d="M1221.64-358.37c0,16.78-12.8,30.38-28.6,30.38s-28.6-13.6-28.6-30.38,12.8-30.38,28.6-30.38,28.6,13.6,28.6,30.38" transform="translate(0 527)"/><rect class="cls-10" x="2981.57" y="215.64" width="93.48" height="59.9"/><line class="cls-10" x1="3106.24" y1="184.46" x2="3075.05" y2="215.64"/><line class="cls-1" x1="3479" y1="242.35" x2="3532.5" y2="242.35"/><line class="cls-1" x1="3479" y1="258.59" x2="3532.5" y2="258.59"/><line class="cls-1" x1="3552" y1="234.24" x2="3605.5" y2="234.24"/><line class="cls-1" x1="3552" y1="250.47" x2="3605.5" y2="250.47"/><line class="cls-1" x1="3552" y1="216.91" x2="3532.5" y2="274.27"/><circle class="cls-1" cx="4364.43" cy="604.95" r="19.64"/><circle class="cls-1" cx="4302.99" cy="604.95" r="19.64"/><line class="cls-1" x1="4317.5" y1="637.39" x2="4349.74" y2="572.52"/><text class="cls-3" transform="translate(4266.62 691.19)">super cheap</text><text class="cls-11" transform="translate(4336 506.49)">#</text><line class="cls-1" x1="4491.87" y1="439.5" x2="4475.37" y2="504"/><line class="cls-1" x1="4458.36" y1="582.84" x2="4537.04" y2="582.84"/><line class="cls-1" x1="4458.36" y1="619.95" x2="4537.04" y2="619.95"/><line class="cls-1" x1="4487.26" y1="551.94" x2="4474.01" y2="651.49"/><line class="cls-1" x1="4521.02" y1="551.94" x2="4507.77" y2="651.49"/><text class="cls-3" transform="translate(4431.33 689.21)">has<tspan x="17.2" y="0">h</tspan><tspan x="23.81" y="0">tag th</tspan><tspan x="53.45" y="0">a</tspan><tspan x="59.18" y="0">t shit</tspan></text><polygon class="cls-12" points="4630 562.29 4658.67 562.29 4640.33 588.29 4658.67 588.29 4616.33 635.38 4630 602.96 4614 602.96 4630 562.29"/><polygon class="cls-12" points="4690.33 562.29 4719 562.29 4700.67 588.29 4719 588.29 4676.67 635.38 4690.33 602.96 4674.33 602.96 4690.33 562.29"/><text class="cls-3" transform="translate(4596.04 691.19)">can cha<tspan x="38.18" y="0">r</tspan><tspan x="42.01" y="0">ge devi</tspan><tspan x="78.63" y="0">c</tspan><tspan x="83.94" y="0">es </tspan><tspan x="97.25" y="0">f</tspan><tspan x="100.59" y="0">or f</tspan><tspan x="117.15" y="0">r</tspan><tspan x="120.96" y="0">ee</tspan></text></svg>